<svg width="512" height="512" viewBox="0 0 512 512" fill="none" xmlns="http://www.w3.org/2000/svg">
  <path d="M126 136C126 126.059 134.059 118 144 118H182C191.941 118 200 126.059 200 136V376C200 385.941 191.941 394 182 394H144C134.059 394 126 385.941 126 376V136Z" fill="#073754"/>
  <path d="M220.233 255.345C214.274 250.093 214.274 240.824 220.233 235.571L332.968 136.225C336.263 133.321 340.504 131.719 344.897 131.719H398.602C415.177 131.719 422.798 152.313 410.27 163.169L309.237 250.723C302.731 256.361 302.731 266.462 309.237 272.1L414.187 363.049C426.716 373.905 419.094 394.5 402.52 394.5H345.467C341.074 394.5 336.833 392.897 333.538 389.993L220.233 290.145C214.274 284.892 214.274 275.624 220.233 270.371L235.269 257.116C235.678 256.756 235.678 256.122 235.269 255.762L220.233 255.345Z" fill="#073754"/>
  <path d="M112 407C183 450 322 459 410 374" stroke="#8DD8F3" stroke-opacity="0.72" stroke-width="18" stroke-linecap="round"/>
  <path d="M416 103C353 64 214 54 112 137" stroke="#8DD8F3" stroke-opacity="0.72" stroke-width="18" stroke-linecap="round"/>
</svg>
